{"title":"Death in Paradise S03E07 720P x264 RB58.mp4","uid":9666745,"size":1060398434,"categoryP":"video","categoryS":"hd___tv_shows","magnet":"?xt=urn:btih:f7e46671224d682679775b4fbd4c5c5b5c1ab4aa&amp;dn=Death+in+Paradise+S03E07+720P+x264+RB58.mp4&amp;tr=udp%3A%2F%2Ftracker.openbittorrent.com%3A80&amp;tr=udp%3A%2F%2Fopen.demonii.com%3A1337&amp;tr=udp%3A%2F%2Ftracker.coppersurfer.tk%3A6969&amp;tr=udp%3A%2F%2Fexodus.desync.com%3A6969","seeders":2,"leechers":0,"uploader":"RedBaron58","files":1,"time":1393385478,"description":"Death in Paradise Series 3 Episode 7 in HD.\n &lt;a href=&quot;\nhttp://www.imdb.com/title/tt1888075/&quot; rel=&quot;nofollow&quot; target=&quot;_NEW&quot;&gt;\nhttp://www.imdb.com/title/tt1888075/&lt;/a&gt; \n\n\nPlease be patient My upload speed is limited, but I am online most the time and during the night.\nThank you for your kind comments and thumbs ups on my other torrents, your feedback is welcome.\n\n\nAbout the Episode:\nHumphrey and his colleagues are called to a neighbouring private island whose property developer \nowner has been shot dead at a family gathering. Five people are in the frame, \nthe victim's housekeeper, his PA and his three children. Although when an approaching hurricane \nstrands the cops on the island, knocking out the phones and computers, they are forced to rely \non good old-fashioned investigative techniques.\n\n\nI hope you enjoy.\n\n\nTechnical:\n\nGeneral\nComplete name                            : E:Death in Paradise S03E07 720P x264 RB58.mp4\nFormat                                   : MPEG-4\nFormat profile                           : Base Media\nCodec ID                                 : isom\nFile size                                : 1 011 MiB\nDuration                                 : 58mn 54s\nOverall bit rate mode                    : Variable\nOverall bit rate                         : 2 400 Kbps\nWriting application                      : Lavf54.63.104\n\nVideo\nID                                       : 1\nFormat                                   : AVC\nFormat/Info                              : Advanced Video Codec\nFormat profile                           : &lt;a class=&quot;__cf_email__&quot; href=&quot;/cdn-cgi/l/email-protection&quot; data-cfemail=&quot;dc94b5bbb49c90e8f2ed&quot;&gt;[email&amp;#160;protected]&lt;/a&gt;&lt;script cf-hash='f9e31' type=&quot;text/javascript&quot;&gt;\n/* &lt;![CDATA[ */!function(){try{var t=&quot;currentScript&quot;in document?document.currentScript:function(){for(var t=document.getElementsByTagName(&quot;script&quot;),e=t.length;e--;)if(t[e].getAttribute(&quot;cf-hash&quot;))return t[e]}();if(t&amp;&amp;t.previousSibling){var e,r,n,i,c=t.previousSibling,a=c.getAttribute(&quot;data-cfemail&quot;);if(a){for(e=&quot;&quot;,r=parseInt(a.substr(0,2),16),n=2;a.length-n;n+=2)i=parseInt(a.substr(n,2),16)^r,e+=String.fromCharCode(i);e=document.createTextNode(e),c.parentNode.replaceChild(e,c)}}}catch(u){}}();/* ]]&gt; */&lt;/script&gt;\nFormat settings, CABAC                   : Yes\nFormat settings, ReFrames                : 2 frames\nCodec ID                                 : avc1\nCodec ID/Info                            : Advanced Video Coding\nDuration                                 : 58mn 54s\nBit rate mode                            : Variable\nBit rate                                 : 2 301 Kbps\nMaximum bit rate                         : 3 500 Kbps\nWidth                                    : 1 280 pixels\nHeight                                   : 720 pixels\nDisplay aspect ratio                     : 16:9\nFrame rate mode                          : Constant\nFrame rate                               : 25.000 fps\nColor space                              : YUV\nChroma subsampling                       : 4:2:0\nBit depth                                : 8 bits\nScan type                                : Progressive\nBits/(Pixel*Frame)                       : 0.100\nStream size                              : 970 MiB (96%)\n\nAudio\nID                                       : 2\nFormat                                   : AAC\nFormat/Info                              : Advanced Audio Codec\nFormat profile                           : LC\nCodec ID                                 : 40\nDuration                                 : 58mn 54s\nBit rate mode                            : Constant\nBit rate                                 : 93.5 Kbps\nChannel(s)                               : 2 channels\nChannel positions                        : Front: L R\nSampling rate                            : 48.0 KHz\nCompression mode                         : Lossy\nStream size                              : 39.4 MiB (4%)","torrent":{"xt":"urn:btih:f7e46671224d682679775b4fbd4c5c5b5c1ab4aa","amp;dn":"Death+in+Paradise+S03E07+720P+x264+RB58.mp4","amp;tr":["udp%3A%2F%2Ftracker.openbittorrent.com%3A80","udp%3A%2F%2Fopen.demonii.com%3A1337","udp%3A%2F%2Ftracker.coppersurfer.tk%3A6969","udp%3A%2F%2Fexodus.desync.com%3A6969"],"infoHash":"f7e46671224d682679775b4fbd4c5c5b5c1ab4aa","infoHashBuffer":{"type":"Buffer","data":[247,228,102,113,34,77,104,38,121,119,91,79,189,76,92,91,92,26,180,170]},"announce":[],"urlList":[]}}